<?xml version="1.0" encoding="UTF-8" standalone="no"?>
<svg
   version="1.0"
   width="307.64777pt"
   height="247.92693pt"
   viewBox="0 0 307.64777 247.92693"
   preserveAspectRatio="xMidYMid"
   id="svg1"
   sodipodi:docname="eep.svg"
   inkscape:version="1.4.2 (ebf0e940d0, 2025-05-08)"
   xmlns:inkscape="http://www.inkscape.org/namespaces/inkscape"
   xmlns:sodipodi="http://sodipodi.sourceforge.net/DTD/sodipodi-0.dtd"
   xmlns="http://www.w3.org/2000/svg"
   xmlns:svg="http://www.w3.org/2000/svg">
  <defs
     id="defs1" />
  <sodipodi:namedview
     id="namedview1"
     pagecolor="#ffffff"
     bordercolor="#000000"
     borderopacity="0.25"
     inkscape:showpageshadow="2"
     inkscape:pageopacity="0.0"
     inkscape:pagecheckerboard="0"
     inkscape:deskcolor="#d1d1d1"
     inkscape:document-units="pt"
     inkscape:zoom="0.82344388"
     inkscape:cx="146.94383"
     inkscape:cy="187.62663"
     inkscape:window-width="1536"
     inkscape:window-height="888"
     inkscape:window-x="0"
     inkscape:window-y="0"
     inkscape:window-maximized="1"
     inkscape:current-layer="g1" />
  <metadata
     id="metadata1">
Created by potrace 1.10, written by Peter Selinger 2001-2011
</metadata>
  <g
     transform="matrix(0.1,0,0,-0.1,10.474702,229.402)"
     fill="#000000"
     stroke="none"
     id="g1">
    <path
       d="m 2733.0493,983.30426 c -62.9325,13.43503 -131.5219,9.8995 -210.0107,-12.02081 -58.6899,-16.26346 -58.6899,-16.26346 -105.359,20.50609 -94.7523,74.95336 -159.099,168.99856 -383.9589,559.32146 -219.9102,383.959 -304.056,490.7321 -477.2971,605.9905 -163.3417,108.1874 -380.4235,159.8062 -540.2296,127.2792 -27.57716,-4.9497 -68.58935,-10.6066 -91.21677,-12.0208 -22.62741,0 -63.63961,-9.8995 -92.63099,-20.5061 -46.66904,-16.9705 -61.51829,-28.9913 -146.3711,-115.2584 -85.55992,-86.9741 -101.82338,-108.8944 -167.58431,-219.9102 -87.68124,-151.3208 -138.59293,-205.061 -257.38687,-275.7716 -45.96194,-27.5772 -127.27922,-66.4681 -180.312224,-86.9742 -127.986328,-50.2045 -153.442172,-62.9325 -168.998521,-88.3883 -21.920315,-37.4767 -21.920315,-86.9741 0,-125.865 43.133514,-72.832 121.622366,-84.8528 263.043725,-41.0122 31.8198,10.6066 59.39697,16.9706 61.51829,14.8492 2.12132,-2.1213 -19.09189,-58.6898 -46.66905,-124.4508 -27.57716,-67.1751 -50.91169,-138.5929 -51.61879,-159.099 -3.53554,-78.48884 75.66042,-137.88581 155.56349,-115.9655 48.08326,12.72792 108.18733,74.24621 147.78531,152.028 17.67767,33.234 50.91169,83.4386 74.24622,112.4299 72.83199,86.9742 123.03658,94.7523 337.99704,55.1544 111.01576,-20.5061 207.18225,-17.6777 267.28635,8.4852 l 43.8406,19.799 90.5097,-90.5096 89.8026,-89.8026 -9.8995,-42.4264 c -5.6569,-24.0416 -12.0208,-111.01577 -14.1422,-193.74726 -2.1213,-82.73149 -9.8995,-171.11984 -16.2634,-197.28279 -7.0711,-25.45584 -45.2549,-121.62237 -86.2671,-212.13204 -146.3711,-328.80465 -152.0279,-372.645269 -66.468,-445.4772673 48.7904,-41.7192997 91.9239,-49.4974747 147.0782,-26.8700577 50.9117,19.79899 65.0538,39.5979798 135.7645,190.918835 111.0158,238.29498 262.3366,487.19657 310.4199,508.40977 9.8995,4.24264 39.598,-21.2132 134.3503,-115.96551 129.4005,-129.40054 162.6345,-176.7767 173.2411,-245.36605 3.5356,-27.57717 16.2635,-48.79037 43.8407,-79.19596 21.9203,-23.33453 43.8406,-46.66905 48.0832,-52.3259 C 2155.343,158.11065 2113.6237,44.266458 2082.511,-0.98837593 2052.1054,-46.950317 2051.3983,-91.498044 2081.8039,-131.80313 c 31.1127,-41.01219 98.2879,-62.9325 154.1493,-49.49748 75.6604,17.67767 165.463,117.379731 217.7889,239.002097 21.2132,49.497473 26.1629,55.861433 56.5685,69.296463 18.3848,7.07107 56.5686,26.87006 84.1457,43.13352 40.3051,24.74873 65.761,30.40559 128.6935,31.11269 111.0157,2.12132 220.6173,42.42641 245.366,89.80256 18.3848,33.94113 -44.5477,125.1579 -125.865,183.84777 l -55.8614,40.30508 -2.8284,48.08327 c -2.8285,45.25483 -32.527,144.24978 -48.7904,160.51323 -3.5355,3.53554 6.364,31.81981 22.6274,62.2254 36.7696,69.29647 56.5686,155.56349 39.598,172.53406 -7.0711,7.07106 -36.0625,17.67767 -64.3467,24.74873 z m -969.4434,860.54894 c 29.6985,-41.0122 123.0366,-195.1615 207.8894,-343.6539 210.0107,-364.16 241.8305,-412.9503 352.1391,-526.08742 64.3468,-65.76094 92.631,-99.70206 94.0452,-113.8442 0.7072,-12.02081 9.8995,-26.87005 19.799,-33.94112 13.4351,-10.6066 32.5269,-5.65686 93.3381,25.45584 72.832,37.47666 168.2914,63.63961 181.7265,50.20458 14.1421,-14.14213 -31.1127,-101.82337 -85.5599,-164.75588 -43.1336,-50.20458 -54.4473,-70.00357 -50.9117,-86.26702 7.071,-29.69849 38.8908,-33.23402 74.2462,-6.36396 l 28.9914,21.92031 13.435,-43.13352 c 7.0711,-24.04163 14.1421,-56.56854 14.1421,-72.12489 1.4142,-25.45584 -2.1213,-30.40559 -26.1629,-41.7193 -21.2132,-9.89949 -28.2843,-16.97056 -29.6985,-32.52691 -2.1213,-27.57717 13.435,-41.7193 67.1751,-62.93251 53.033,-20.50609 151.3209,-84.85281 150.6138,-98.28784 0,-18.38477 -79.196,-33.94112 -164.0488,-33.94112 -74.9533,0 -89.8026,-3.53554 -135.7645,-33.94113 -72.832,-47.37615 -170.4127,-78.48885 -241.1234,-75.66042 -65.7609,2.12132 -98.995,16.97056 -119.5011,51.61879 -10.6066,17.67767 -8.4852,26.87006 7.7782,43.13351 14.1422,14.14214 30.4056,19.09189 50.2046,14.84925 36.0624,-7.77818 46.669,2.82842 45.2548,41.01219 -2.8284,67.88225 -43.1335,95.45942 -81.3172,57.27565 -32.527,-32.52691 -82.0244,-21.2132 -124.4508,28.28427 -53.0331,62.9325 -45.962,135.0574 24.0416,239.00209 30.4056,45.96194 33.234,55.86144 21.9203,75.66043 -31.8198,53.03301 -96.1665,-12.72792 -152.7351,-156.97771 -7.071,-15.55635 -13.435,-12.02081 -69.2964,43.84062 -41.0122,41.0122 -57.2757,61.51829 -48.7904,64.34672 6.364,0.70711 17.6777,12.02082 25.4558,24.04163 27.5772,45.96194 -61.5182,85.55992 -142.8355,62.2254 -42.4264,-11.31371 -51.6188,-19.09189 -113.8442,-88.38835 -76.3675,-83.4386 -159.8061,-219.2031 -246.0732,-398.80822 C 1288.4301,33.659856 1295.5012,44.973565 1263.6814,35.781177 c -16.2635,-4.949748 -41.7193,-2.121321 -56.5686,5.656854 -56.5685,28.284271 -45.2548,74.953319 96.1666,387.494519 79.1959,178.19091 91.2167,229.8097 96.1665,422.84985 4.2426,155.5635 12.0208,187.3833 84.8528,330.926 22.6274,43.8406 41.7193,86.9741 42.4264,96.1665 2.8284,21.2132 -19.0919,40.3051 -43.8406,38.1838 -16.2635,-2.1214 -25.4559,-12.728 -53.7401,-69.2965 -19.799,-36.7696 -37.4767,-72.832 -40.3051,-78.4889 -4.2427,-9.8994 -24.0416,5.6569 -82.7315,64.3468 l -77.7818,77.7817 36.7696,52.3259 c 45.2548,66.468 73.5391,130.1077 65.0538,149.9066 -3.5355,7.7782 -14.8492,19.0919 -24.7487,23.3346 -21.2132,11.3137 -36.0625,-6.364 -83.4386,-91.9239 -39.598,-70.7107 -82.0244,-110.3087 -143.5427,-132.229 -62.2254,-22.6274 -111.72287,-21.2132 -238.29498,3.5356 -136.47161,27.5771 -229.1026,25.4558 -288.49957,-7.0711 -67.88225,-36.7696 -108.89444,-80.6102 -157.68481,-168.9985 -65.05382,-115.9655 -71.41779,-125.1579 -104.6518,-141.42139 -33.23402,-16.26345 -57.27565,-12.02081 -70.71068,14.14209 -4.94975,10.6067 19.79899,84.8529 70.00357,211.425 l 79.19596,195.1614 78.48885,47.3762 c 109.60155,65.7609 181.01934,147.0782 243.24473,277.1859 26.87006,55.1543 69.29647,125.865 101.82338,166.8772 31.1127,39.5979 55.86144,77.0746 55.86144,84.1457 0,7.071 -11.31371,18.3847 -24.04163,26.87 l -24.04163,14.1422 -61.51829,-68.5894 c -48.79037,-54.4472 -73.53911,-93.3381 -119.50105,-187.3833 -55.15433,-111.7229 -62.2254,-121.6224 -125.1579,-178.898 -42.42641,-38.1838 -88.38835,-70.0036 -123.74369,-86.9741 -49.49747,-22.6275 -60.10407,-31.8198 -72.12489,-57.9828 -13.43503,-27.5772 -23.33452,-34.6482 -80.61017,-57.9828 -139.300038,-55.8614 -221.3244248,-60.104 -239.709201,-12.0208 -12.727922,33.9412 -4.242641,41.0122 90.509668,76.3676 274.357433,101.8233 400.222443,202.2325 522.551913,416.4859 70.71068,123.0365 169.70563,239.002 239.7092,282.1356 28.99138,17.6776 67.17514,30.4056 102.53048,33.234 30.40559,2.1213 86.9741,9.1924 124.4508,14.1421 252.4371,34.6482 518.3093,-102.5305 707.1068,-364.8671 z M 2346.969,24.467468 c -60.1041,-95.459415 -95.4594,-126.572118 -144.9569,-126.572118 -71.4178,0.70711 -73.5391,15.556354 -21.9203,118.086837 24.7487,50.204581 46.669,90.509663 47.3761,89.802563 12.7279,-5.65686 118.794,-15.556351 130.1077,-12.727924 29.6985,7.071064 26.87,-9.899495 -10.6066,-68.589358 z"
       id="path1" />
  </g>
</svg>
