<?xml version="1.0" encoding="UTF-8" standalone="no"?>
<!-- Uploaded to: SVG Repo, www.svgrepo.com, Generator: SVG Repo Mixer Tools -->

<svg
   width="952.42029"
   height="574.979"
   viewBox="0 0 28.572609 17.24937"
   fill="none"
   version="1.1"
   id="svg4"
   sodipodi:docname="cat-svgrepo-com.svg"
   inkscape:version="1.4.2 (ebf0e940d0, 2025-05-08)"
   xmlns:inkscape="http://www.inkscape.org/namespaces/inkscape"
   xmlns:sodipodi="http://sodipodi.sourceforge.net/DTD/sodipodi-0.dtd"
   xmlns="http://www.w3.org/2000/svg"
   xmlns:svg="http://www.w3.org/2000/svg">
  <defs
     id="defs4" />
  <sodipodi:namedview
     id="namedview4"
     pagecolor="#ffffff"
     bordercolor="#000000"
     borderopacity="0.25"
     inkscape:showpageshadow="2"
     inkscape:pageopacity="0.0"
     inkscape:pagecheckerboard="0"
     inkscape:deskcolor="#d1d1d1"
     inkscape:zoom="0.38045"
     inkscape:cx="415.29768"
     inkscape:cy="206.33461"
     inkscape:window-width="1536"
     inkscape:window-height="888"
     inkscape:window-x="0"
     inkscape:window-y="0"
     inkscape:window-maximized="1"
     inkscape:current-layer="svg4" />
  <path
     fill-rule="evenodd"
     clip-rule="evenodd"
     d="m 14.648588,10.6874 c -0.2912,0 -0.5889,0.0444 -0.8412,0.1422 -0.1238,0.0479 -0.2752,0.1235 -0.4085,0.2456 -0.1338,0.1227 -0.3067,0.3497 -0.3067,0.6747 0,0.325 0.1729,0.552 0.3067,0.6746 0.1333,0.1222 0.2847,0.1977 0.4085,0.2457 0.2523,0.0978 0.55,0.1422 0.8412,0.1422 0.2913,0 0.5889,-0.0444 0.8413,-0.1422 0.1237,-0.048 0.2751,-0.1235 0.4084,-0.2457 0.1339,-0.1226 0.3068,-0.3496 0.3068,-0.6746 0,-0.325 -0.1729,-0.552 -0.3068,-0.6747 -0.1333,-0.1221 -0.2847,-0.1977 -0.4084,-0.2456 -0.2524,-0.0978 -0.55,-0.1422 -0.8413,-0.1422 z"
     fill="#1C274C"
     id="path1"
     style="fill:#000000;fill-opacity:1" />
  <path
     d="m 16.665488,8.3964 c 0.165,-0.2664 0.4909,-0.5839 0.9798,-0.5839 0.4888,0 0.8147,0.3175 0.9797,0.5839 0.1721,0.2779 0.2541,0.6148 0.2541,0.9474 0,0.3325 -0.082,0.6694 -0.2541,0.9473 -0.165,0.2664 -0.4909,0.5839 -0.9797,0.5839 -0.4889,0 -0.8148,-0.3175 -0.9798,-0.5839 -0.1721,-0.2779 -0.2541,-0.6148 -0.2541,-0.9473 0,-0.3326 0.082,-0.6695 0.2541,-0.9474 z"
     fill="#1C274C"
     id="path2"
     style="fill:#000000;fill-opacity:1" />
  <path
     d="m 11.645328,7.8125 c -0.48883,0 -0.81473,0.3175 -0.97976,0.5839 -0.17213,0.2779 -0.25411,0.6148 -0.25411,0.9474 0,0.3325 0.08198,0.6694 0.25411,0.9473 0.16503,0.2664 0.49093,0.5839 0.97976,0.5839 0.48884,0 0.81474,-0.3175 0.97976,-0.5839 0.1721,-0.2779 0.2541,-0.6148 0.2541,-0.9473 0,-0.3326 -0.082,-0.6695 -0.2541,-0.9474 -0.16502,-0.2664 -0.49092,-0.5839 -0.97976,-0.5839 z"
     fill="#1C274C"
     id="path3"
     style="fill:#000000;fill-opacity:1" />
  <path
     fill-rule="evenodd"
     clip-rule="evenodd"
     d="m 8.7238382,0 c -0.61337,0 -1.32022,0.17871 -1.88603,0.66616 -0.58656,0.50534 -0.93878,1.27165 -0.93878,2.27134 v 1.875 l 10e-6,0.00295 c 0.00115,0.29396 0.05105,0.88212 0.21875,1.37375 0.05485,0.1609 0.14249,0.3742 0.28884,0.5666 -0.284,0.563 -0.4186,1.1437 -0.47977,1.7037 -0.05107,0.4676 -0.05176,0.9584 -0.04363,1.4116 -0.059229,0.846751 -0.1402644,0.689461 0.06443,1.5728 0.06888,0.4791 0.20849,0.9156 0.40343,1.3124 0.3684084,0.745167 0.1563275,0.359571 0.87491,1.2225 0.58952,0.6025 1.32164,1.0676 2.08215,1.4174 1.7808198,0.8192 3.8898398,1.1038 5.3209398,1.1038 1.431,0 3.5401,-0.2846 5.3209,-1.1038 0.7605,-0.3498 1.4926,-0.8149 2.0821,-1.4174 0.636986,-0.854853 0.510663,-0.581844 0.875,-1.2225 0.1949,-0.3968 0.3346,-0.8333 0.4034,-1.3125 0.04924,-1.10953 0.0612,-0.786089 0.0644,-1.5728 0.0082,-0.4532 0.0075,-0.944 -0.0436,-1.4115 -0.0611,-0.56 -0.1958,-1.1407 -0.4798,-1.7037 0.1464,-0.1924 0.234,-0.4057 0.2889,-0.5666 0.1677,-0.49162 0.2176,-1.07979 0.2187,-1.37375 l 10e-5,-0.00295 V 2.93761 c 0,-0.99969 -0.3523,-1.76599 -0.9388,-2.27133 -0.5658,-0.48746 -1.2727,-0.66617 -1.886,-0.66617 -0.4085,0 -0.831,0.15674 -1.1717,0.31065 -0.3611,0.16316 -0.7385,0.37514 -1.0779,0.5706 -0.073,0.04203 -0.1439,0.08308 -0.2128,0.12296 l -0.002,0.00116 c -0.264,0.15292 -0.4983,0.28862 -0.7071,0.39619 -0.1297,0.06683 -0.2304,0.11263 -0.3054,0.14039 -0.0316,0.01171 -0.0518,0.0176 -0.0622,0.02036 -0.2534,-0.0014 -0.4149,-0.02209 -0.6482,-0.05198 -0.05,-0.00641 -0.1034,-0.01325 -0.1617,-0.02041 -0.3466,-0.0426 -0.7842,-0.08367 -1.5563,-0.08367 -0.7721,0 -1.2096,0.04107 -1.5563,0.08367 -0.0583,0.00716 -0.1116,0.014 -0.1617,0.02041 -0.2332,0.02989 -0.39472,0.05058 -0.64822,0.05198 -0.01036,-0.00276 -0.03056,-0.00866 -0.06214,-0.02036 -0.07496,-0.02776 -0.1757,-0.07357 -0.30541,-0.1404 -0.20878,-0.10758 -0.44302,-0.24324 -0.70707,-0.39618 -0.06951,-0.04025 -0.14108,-0.08171 -0.2148,-0.12416 C 10.634008,0.68584 10.256628,0.47384 9.8955082,0.31067 9.5548582,0.15675 9.1322782,0 8.7238382,0 Z m 0.06707,13.3638 c 0.33403,0.2519 0.71888,0.4741 1.14412,0.6697 C 11.465928,14.7377 13.346888,15 14.629088,15 c 1.2822,0 3.1631,-0.2623 4.694,-0.9665 0.4253,-0.1956 0.8101,-0.4178 1.1441,-0.6697 0.699587,-0.589449 0.557827,-0.411051 1.1017,-1.2934 0.1586,-0.3319 0.256,-0.6954 0.2827,-1.0933 0.08158,-0.986427 0.04486,-0.505194 0.0278,-1.5297 10e-5,-0.2761 -0.0089,-0.5472 -0.0392,-0.825 -0.0705,-0.6454 -0.2532,-1.2183 -0.6843,-1.7277 -0.1542,-0.1822 -0.346,-0.3634 -0.5867,-0.5402 -0.3339,-0.2451 -0.4058,-0.71451 -0.1606,-1.04839 0.2451,-0.33387 0.7145,-0.4058 1.0484,-0.16065 0.1191,0.08746 0.2317,0.17736 0.3379,0.2696 0.044,-0.2282 0.0636,-0.46689 0.0643,-0.60419 V 2.93761 c 0,-0.6253 -0.2064,-0.95275 -0.4179,-1.13491 -0.2322,-0.20004 -0.5627,-0.30259 -0.9069,-0.30259 -0.0704,0 -0.2464,0.03857 -0.5541,0.1776 -0.2873,0.12979 -0.6081,0.30841 -0.947,0.50354 -0.0636,0.03665 -0.1284,0.07419 -0.1937,0.11203 -0.2678,0.15515 -0.5446,0.31555 -0.7897,0.44181 -0.1546,0.07964 -0.3157,0.1559 -0.4714,0.21358 -0.1437,0.05325 -0.3425,0.11383 -0.5554,0.11383 -0.3718,0 -0.6324,-0.03373 -0.8826,-0.0661 -0.0461,-0.00597 -0.0919,-0.01191 -0.138,-0.01757 -0.2887,-0.03547 -0.6651,-0.07247 -1.3734,-0.07247 -0.7082,0 -1.0847,0.037 -1.3734,0.07247 -0.046,0.00566 -0.0918,0.01159 -0.138,0.01756 -0.2501,0.03238 -0.51074,0.06611 -0.8826,0.06611 -0.21284,0 -0.41165,-0.06059 -0.55541,-0.11384 -0.15572,-0.05768 -0.31683,-0.13395 -0.47141,-0.2136 C 10.963218,2.6088 10.686408,2.44839 10.418668,2.29325 10.353338,2.25539 10.288538,2.21784 10.224878,2.18118 9.8860082,1.98603 9.5651282,1.80741 9.2778682,1.67761 8.9701382,1.53856 8.7942082,1.5 8.7238382,1.5 c -0.34423,0 -0.67478,0.10254 -0.90698,0.30259 -0.21144,0.18216 -0.41783,0.5096 -0.41783,1.13491 v 1.87338 c 6.6e-4,0.13731 0.02021,0.37598 0.06421,0.60418 0.10628,-0.09225 0.21884,-0.18214 0.33795,-0.2696 0.33388,-0.24515 0.80327,-0.17322 1.04842,0.16066 0.24515,0.33387 0.17323,0.80328 -0.16065,1.04838 -0.24071,0.1768 -0.43249,0.358 -0.58666,0.5402 -0.43108,0.5094 -0.61382,1.0823 -0.68431,1.7277 -0.03035,0.2778 -0.03934,0.5489 -0.03925,0.8251 -0.079919,0.684791 -0.10065,0.674189 0.02783,1.5296 0.02676,0.3979 0.1241,0.7614 0.28269,1.0932 0.3924679,0.690647 0.2651441,0.542113 1.10165,1.2935 z"
     fill="#1C274C"
     id="path4"
     style="fill:#000000;fill-opacity:1;stroke-width:0.99999;stroke-dasharray:none"
     sodipodi:nodetypes="scscsccccccccsccccccccccscsccsscccccscccccccssccsccccccccccccscscccscsccsccsscccsscsccccccccccc" />
  <path
     style="fill:none;fill-opacity:1;fill-rule:evenodd;stroke:#000000;stroke-width:0.99999;stroke-dasharray:none"
     id="path5"
     sodipodi:type="arc"
     sodipodi:cx="9.5814428"
     sodipodi:cy="8.8606901"
     sodipodi:rx="4.1893663"
     sodipodi:ry="4.1893663"
     sodipodi:start="1.8686887"
     sodipodi:end="3.6433879"
     sodipodi:arc-type="arc"
     d="M 8.3518384,12.865545 A 4.1893663,4.1893663 0 0 1 5.6996175,10.436197 4.1893663,4.1893663 0 0 1 5.9085396,6.8456039"
     sodipodi:open="true"
     transform="rotate(11.077732)" />
  <path
     style="fill:none;fill-opacity:1;fill-rule:evenodd;stroke:#000000;stroke-width:0.99999;stroke-dasharray:none"
     id="path5-3"
     sodipodi:type="arc"
     sodipodi:cx="8.8050833"
     sodipodi:cy="9.6007719"
     sodipodi:rx="6.29632"
     sodipodi:ry="6.29632"
     sodipodi:start="1.8686887"
     sodipodi:end="3.6433879"
     sodipodi:arc-type="arc"
     d="M 6.9570752,15.619784 A 6.29632,6.29632 0 0 1 2.9709755,11.968647 6.29632,6.29632 0 0 1 3.2849707,6.5722405"
     sodipodi:open="true"
     transform="rotate(11.077732)" />
  <path
     style="fill:none;fill-opacity:1;fill-rule:evenodd;stroke:#000000;stroke-width:0.99999;stroke-dasharray:none"
     id="path5-6"
     sodipodi:type="arc"
     sodipodi:cx="-18.153839"
     sodipodi:cy="14.875177"
     sodipodi:rx="4.1893663"
     sodipodi:ry="4.1893663"
     sodipodi:start="1.8686887"
     sodipodi:end="3.6433879"
     sodipodi:arc-type="arc"
     d="m -19.383444,18.880032 a 4.1893663,4.1893663 0 0 1 -2.65222,-2.429348 4.1893663,4.1893663 0 0 1 0.208922,-3.590593"
     sodipodi:open="true"
     transform="matrix(-0.97790544,0.20904774,0.20904774,0.97790544,0,0)" />
  <path
     style="fill:none;fill-opacity:1;fill-rule:evenodd;stroke:#000000;stroke-width:0.99999;stroke-dasharray:none"
     id="path5-3-2"
     sodipodi:type="arc"
     sodipodi:cx="-18.930199"
     sodipodi:cy="15.615259"
     sodipodi:rx="6.29632"
     sodipodi:ry="6.29632"
     sodipodi:start="1.8686887"
     sodipodi:end="3.6433879"
     sodipodi:arc-type="arc"
     d="m -20.778207,21.634272 a 6.29632,6.29632 0 0 1 -3.986099,-3.651138 6.29632,6.29632 0 0 1 0.313995,-5.396406"
     sodipodi:open="true"
     transform="matrix(-0.97790544,0.20904774,0.20904774,0.97790544,0,0)" />
</svg>
